<svg width="78" height="14" viewBox="0 0 78 14" fill="none" xmlns="http://www.w3.org/2000/svg">
<path fill-rule="evenodd" clip-rule="evenodd" d="M5.93269 1.28395C6.33796 0.349362 7.66334 0.349361 8.06861 1.28395L9.29455 4.11107L12.3621 4.40338C13.3762 4.50001 13.7858 5.76052 13.0222 6.43476L10.7123 8.47433L11.3822 11.4821C11.6037 12.4764 10.5314 13.2555 9.6542 12.7376L7.00065 11.171L4.3471 12.7376C3.4699 13.2555 2.39764 12.4764 2.61911 11.4821L3.28905 8.47433L0.979126 6.43476C0.215517 5.76052 0.62508 4.50001 1.63916 4.40338L4.70675 4.11108L5.93269 1.28395Z" fill="#F89828"/>
<path fill-rule="evenodd" clip-rule="evenodd" d="M21.9327 1.28395C22.338 0.349362 23.6633 0.349361 24.0686 1.28395L25.2945 4.11107L28.3621 4.40338C29.3762 4.50001 29.7858 5.76052 29.0222 6.43476L26.7123 8.47433L27.3822 11.4821C27.6037 12.4764 26.5314 13.2555 25.6542 12.7376L23.0007 11.171L20.3471 12.7376C19.4699 13.2555 18.3976 12.4764 18.6191 11.4821L19.289 8.47433L16.9791 6.43476C16.2155 5.76052 16.6251 4.50001 17.6392 4.40338L20.7068 4.11108L21.9327 1.28395Z" fill="#F89828"/>
<path fill-rule="evenodd" clip-rule="evenodd" d="M37.9327 1.28395C38.338 0.349362 39.6633 0.349361 40.0686 1.28395L41.2945 4.11107L44.3621 4.40338C45.3762 4.50001 45.7858 5.76052 45.0222 6.43476L42.7123 8.47433L43.3822 11.4821C43.6037 12.4764 42.5314 13.2555 41.6542 12.7376L39.0007 11.171L36.3471 12.7376C35.4699 13.2555 34.3976 12.4764 34.6191 11.4821L35.289 8.47433L32.9791 6.43476C32.2155 5.76052 32.6251 4.50001 33.6392 4.40338L36.7068 4.11108L37.9327 1.28395Z" fill="#F89828"/>
<path fill-rule="evenodd" clip-rule="evenodd" d="M53.9327 1.28395C54.338 0.349362 55.6633 0.349361 56.0686 1.28395L57.2945 4.11107L60.3621 4.40338C61.3762 4.50001 61.7858 5.76052 61.0222 6.43476L58.7123 8.47433L59.3822 11.4821C59.6037 12.4764 58.5314 13.2555 57.6542 12.7376L55.0007 11.171L52.3471 12.7376C51.4699 13.2555 50.3976 12.4764 50.6191 11.4821L51.289 8.47433L48.9791 6.43476C48.2155 5.76052 48.6251 4.50001 49.6392 4.40338L52.7068 4.11108L53.9327 1.28395Z" fill="#F89828"/>
<path fill-rule="evenodd" clip-rule="evenodd" d="M69.9327 1.28395C70.338 0.349362 71.6633 0.349361 72.0686 1.28395L73.2945 4.11107L76.3621 4.40338C77.3762 4.50001 77.7858 5.76052 77.0222 6.43476L74.7123 8.47433L75.3822 11.4821C75.6037 12.4764 74.5314 13.2555 73.6542 12.7376L71.0007 11.171L68.3471 12.7376C67.4699 13.2555 66.3976 12.4764 66.6191 11.4821L67.289 8.47433L64.9791 6.43476C64.2155 5.76052 64.6251 4.50001 65.6392 4.40338L68.7068 4.11108L69.9327 1.28395Z" fill="#F89828"/>
</svg>
